<svg width="145" height="63" viewBox="0 0 145 63" fill="none" xmlns="http://www.w3.org/2000/svg">
<path d="M51.0228 48.0945L47.7815 51.9016L51.1202 54.7441L54.3742 51.805L51.0228 48.0945ZM4.70324 4.01567C1.95067 4.23663 -0.101597 6.64716 0.119368 9.39973L3.7202 54.2554C3.94116 57.008 6.35169 59.0603 9.10426 58.8393C11.8568 58.6183 13.9091 56.2078 13.6881 53.4552L10.4874 13.5835L50.3591 10.3828C53.1117 10.1618 55.164 7.75128 54.943 4.99871C54.722 2.24614 52.3115 0.193872 49.5589 0.414837L4.70324 4.01567ZM94.1031 9.18328L97.7635 5.77716L94.4076 2.17071L90.7517 5.47276L94.1031 9.18328ZM54.264 44.2874L8.34462 5.19253L1.86205 12.8067L47.7815 51.9016L54.264 44.2874ZM144.473 55.9738L97.7635 5.77716L90.4428 12.5894L137.153 62.786L144.473 55.9738ZM90.7517 5.47276L47.6713 44.3839L54.3742 51.805L97.4546 12.8938L90.7517 5.47276Z" fill="white"/>
</svg>
