<svg width="14" height="14" viewBox="0 0 14 14" fill="none" xmlns="http://www.w3.org/2000/svg">
<path d="M8.66797 6.67188V4.67188C11.708 4.28521 14.0013 2.60521 14.0013 0.671875H0.667969C0.667969 2.60521 2.9613 4.28521 6.0013 4.67188V6.67188C3.54797 7.15854 0.667969 9.07854 0.667969 14.0052H4.66797V12.6719H2.08797C2.70797 8.11854 6.5213 7.87188 7.33464 7.87188C8.14797 7.87188 11.9613 8.11854 12.5813 12.6719H10.0013V14.0052H14.0013C14.0013 9.07854 11.1213 7.15854 8.66797 6.67188ZM11.9146 2.00521C11.0013 2.79854 9.33464 3.41854 7.33464 3.41854C5.33464 3.41854 3.66797 2.79854 2.75464 2.00521H11.9146ZM7.33464 14.0052C6.6013 14.0052 6.0013 13.4052 6.0013 12.6719C6.0013 12.3052 6.14797 11.9719 6.39464 11.7319C6.92797 11.1985 10.0013 10.0052 10.0013 10.0052C10.0013 10.0052 8.80797 13.0785 8.27464 13.6119C8.03464 13.8585 7.7013 14.0052 7.33464 14.0052Z" fill="#8846F4"/>
</svg>
