<svg width="70" height="67" viewBox="0 0 70 67" fill="none" xmlns="http://www.w3.org/2000/svg">
<path d="M25.2182 4.44047L32.8859 8.40648C34.1887 9.08035 35.7558 8.98711 36.9696 8.16351L43.8346 3.50506C46.2482 1.86727 49.5467 3.28024 50.0262 6.15737L51.5247 15.1482C51.8084 16.8504 53.1517 18.1787 54.8569 18.4433L62.0964 19.5667C65.3533 20.0721 66.6358 24.0785 64.2778 26.3812L59.8554 30.6999C58.4871 32.0361 58.2561 34.154 59.3042 35.7538L63.8886 42.7508C65.5719 45.32 63.8513 48.7492 60.7854 48.9355L54.7558 49.3021C52.8604 49.4173 51.3073 50.8492 51.0387 52.729L49.9058 60.6594C49.4876 63.5868 46.147 65.0641 43.7 63.4036L36.8316 58.7429C35.692 57.9695 34.2346 57.8369 32.9741 58.3918L24.2782 62.2196C21.6345 63.3833 18.6667 61.447 18.6667 58.5586V53.6533C18.6667 51.5843 17.0888 49.8568 15.0283 49.6697L8.6653 49.0921C5.7317 48.8257 4.08248 45.5873 5.59241 43.0581L9.54751 36.433C10.4177 34.9754 10.273 33.1272 9.18653 31.8227L4.22375 25.8643C2.30124 23.556 3.51415 20.0314 6.44997 19.3951L14.9389 17.5551C16.4943 17.218 17.7018 15.9909 18.0139 14.4303L19.4582 7.20887C19.9799 4.60027 22.8553 3.21828 25.2182 4.44047Z" stroke="white" stroke-width="4"/>
<path d="M25.2182 4.44047L32.8859 8.40648C34.1887 9.08035 35.7558 8.98711 36.9696 8.16351L43.8346 3.50506C46.2482 1.86727 49.5467 3.28024 50.0262 6.15737L51.5247 15.1482C51.8084 16.8504 53.1517 18.1787 54.8569 18.4433L62.0964 19.5667C65.3533 20.0721 66.6358 24.0785 64.2778 26.3812L59.8554 30.6999C58.4871 32.0361 58.2561 34.154 59.3042 35.7538L63.8886 42.7508C65.5719 45.32 63.8513 48.7492 60.7854 48.9355L54.7558 49.3021C52.8604 49.4173 51.3073 50.8492 51.0387 52.729L49.9058 60.6594C49.4876 63.5868 46.147 65.0641 43.7 63.4036L36.8316 58.7429C35.692 57.9695 34.2346 57.8369 32.9741 58.3918L24.2782 62.2196C21.6345 63.3833 18.6667 61.447 18.6667 58.5586V53.6533C18.6667 51.5843 17.0888 49.8568 15.0283 49.6697L8.6653 49.0921C5.7317 48.8257 4.08248 45.5873 5.59241 43.0581L9.54751 36.433C10.4177 34.9754 10.273 33.1272 9.18653 31.8227L4.22375 25.8643C2.30124 23.556 3.51415 20.0314 6.44997 19.3951L14.9389 17.5551C16.4943 17.218 17.7018 15.9909 18.0139 14.4303L19.4582 7.20887C19.9799 4.60027 22.8553 3.21828 25.2182 4.44047Z" stroke="white" stroke-width="4"/>
<path fill-rule="evenodd" clip-rule="evenodd" d="M35 46C41.6274 46 47 40.6274 47 34C47 27.3726 41.6274 22 35 22C28.3726 22 23 27.3726 23 34C23 40.6274 28.3726 46 35 46ZM35 44.4516C40.7723 44.4516 45.4516 39.7723 45.4516 34C45.4516 28.2277 40.7723 23.5484 35 23.5484C29.2277 23.5484 24.5484 28.2277 24.5484 34C24.5484 39.7723 29.2277 44.4516 35 44.4516Z" fill="white"/>
</svg>
