<svg width="207" height="51" viewBox="0 0 207 51" fill="none" xmlns="http://www.w3.org/2000/svg">
<path d="M18.8498 10.2774L18.8498 49.1779L11.7766 49.1779L11.7766 10.2774L1 10.2774L1 3.84775L29.596 3.84775L29.9102 10.2774L18.8498 10.2774Z" fill="black"/>
<path d="M45.7868 29.8597L60.2973 49.1779L51.6456 49.1779L38.2583 30.6231L36.9833 30.6231L36.9833 49.1779L29.9102 49.1779L29.596 3.84775L38.1976 3.84775C44.3904 3.84775 48.8629 4.97318 51.6153 7.22403C54.651 9.72932 56.1688 13.0371 56.1688 17.1473C56.1688 20.3572 55.2176 23.117 53.3153 25.4265C51.4129 27.7361 48.9034 29.2138 45.7868 29.8597ZM36.9833 24.6632L39.2297 24.6632C45.9285 24.6632 49.2778 22.1873 49.2778 17.2354C49.2778 12.5967 46.0195 10.2774 39.503 10.2774L36.9833 10.2774L36.9833 24.6632Z" fill="black"/>
<path d="M89.904 38.1683L69.8382 38.1683L64.6168 49.1779L56.9973 49.1779L80.1898 0.999939L102.563 49.1779L94.8218 49.1779L89.904 38.1683ZM87.0201 31.7387L80.0684 16.3253L72.7828 31.7387L87.0201 31.7387Z" fill="black"/>
<path d="M130.903 6.28454L130.903 14.3876C126.815 11.0798 122.586 9.42594 118.214 9.42594C113.398 9.42594 109.34 11.0994 106.041 14.4463C102.722 17.7737 101.063 21.8448 101.063 26.6596C101.063 31.4158 102.722 35.4281 106.041 38.6968C109.36 41.9654 113.428 43.5997 118.245 43.5997C120.734 43.5997 122.849 43.2082 124.589 42.4253C125.56 42.0339 126.562 41.5054 127.594 40.84C128.647 40.1745 129.75 39.372 130.903 38.4325L130.903 46.6824C126.856 48.8941 122.606 49.9999 118.153 49.9999C111.455 49.9999 105.738 47.7393 101.002 43.218C96.2865 38.6576 93.9288 33.1577 93.9288 26.7183C93.9288 20.9444 95.902 15.7968 99.8483 11.2756C104.705 5.73651 110.989 2.96699 118.7 2.96699C122.909 2.96699 126.977 4.07284 130.903 6.28454Z" fill="black"/>
<path d="M136.267 21.9328L154.512 3.84775L163.953 3.84775L142.764 24.3696L164.074 49.1779L154.603 49.1779L137.724 29.0083L136.267 30.4176L136.267 49.1779L129.194 49.1779L129.194 3.84775L136.267 3.84775L136.267 21.9328Z" fill="black"/>
<path d="M169.492 3.84775L169.492 49.1779L162.419 49.1779L162.419 3.84775L169.492 3.84775Z" fill="black"/>
<path d="M187.686 10.2774L187.686 49.1779L180.613 49.1779L180.613 10.2774L168.836 10.2774L169.492 3.84775L198.432 3.84775L198.432 10.2774L187.686 10.2774Z" fill="black"/>
<path d="M197.561 45.8897C197.561 44.7936 197.976 43.8444 198.805 43.0419C199.635 42.2394 200.627 41.8382 201.78 41.8382C202.934 41.8382 203.926 42.2394 204.755 43.0419C205.585 43.8444 206 44.8034 206 45.9191C206 47.0543 205.585 48.0231 204.755 48.8256C203.946 49.6085 202.954 49.9999 201.78 49.9999C200.586 49.9999 199.585 49.6085 198.775 48.8256C197.966 48.0427 197.561 47.064 197.561 45.8897Z" fill="black"/>
</svg>
