<svg width="32" height="34" viewBox="0 0 32 34" fill="none" xmlns="http://www.w3.org/2000/svg">
<path d="M0 32H29V34H0V32Z" fill="#7A35FA"/>
<path d="M0 2C0 0.89543 0.895431 0 2 0H5C6.10457 0 7 0.895431 7 2V30H0V2Z" fill="#7A35FA"/>
<path d="M11 17C11 15.8954 11.8954 15 13 15H16C17.1046 15 18 15.8954 18 17V30H11V17Z" fill="#7A35FA"/>
<path d="M22 25C22 23.8954 22.8954 23 24 23H27C28.1046 23 29 23.8954 29 25V29.5H22V25Z" fill="#7A35FA"/>
<line x1="15.3592" y1="9.17452" x2="23.8268" y2="16.2326" stroke="#7A35FA"/>
<path d="M28.58 20.0374L21.2603 18.8371L26.0812 13.0536L28.58 20.0374Z" fill="#7A35FA"/>
</svg>
